REM DIRINDEX 1\4,1\2\5,1\2\6,1\3\7,1\3\8
REM DIRNAME folder01,folder02,folder03,folder04,folder05,folder06,folder07,folder08
TITLE ""
FILE "070_Day35_Check3_Sentences.mp3" MP3
  TRACK 01 AUDIO
    TITLE "0:"
    INDEX 01 00:00:00
  TRACK 02 AUDIO
    TITLE "4:cjc124_2280"
    INDEX 01 00:00:25
  TRACK 03 AUDIO
    TITLE "0:"
    INDEX 01 00:02:00
  TRACK 04 AUDIO
    TITLE "7:cjc124_2281"
    INDEX 01 00:02:47
  TRACK 05 AUDIO
    TITLE "0:"
    INDEX 01 00:04:07
  TRACK 06 AUDIO
    TITLE "8:cjc124_2282"
    INDEX 01 00:04:21
  TRACK 07 AUDIO
    TITLE "0:"
    INDEX 01 00:05:59
  TRACK 08 AUDIO
    TITLE "7:cjc124_2283"
    INDEX 01 00:06:22
  TRACK 09 AUDIO
    TITLE "0:"
    INDEX 01 00:09:02
  TRACK 10 AUDIO
    TITLE "8:cjc124_2284"
    INDEX 01 00:09:18
  TRACK 11 AUDIO
    TITLE "0:"
    INDEX 01 00:11:52
  TRACK 12 AUDIO
    TITLE "7:cjc124_2285"
    INDEX 01 00:12:14
  TRACK 13 AUDIO
    TITLE "0:"
    INDEX 01 00:15:01
  TRACK 14 AUDIO
    TITLE "8:cjc124_2286"
    INDEX 01 00:15:15
  TRACK 15 AUDIO
    TITLE "0:"
    INDEX 01 00:17:61
  TRACK 16 AUDIO
    TITLE "7:cjc124_2287"
    INDEX 01 00:18:25
  TRACK 17 AUDIO
    TITLE "0:"
    INDEX 01 00:20:43
  TRACK 18 AUDIO
    TITLE "8:cjc124_2288"
    INDEX 01 00:20:57
  TRACK 19 AUDIO
    TITLE "0:"
    INDEX 01 00:22:72
  TRACK 20 AUDIO
    TITLE "7:cjc124_2289"
    INDEX 01 00:23:36
  TRACK 21 AUDIO
    TITLE "0:"
    INDEX 01 00:26:01
  TRACK 22 AUDIO
    TITLE "8:cjc124_2290"
    INDEX 01 00:26:20
  TRACK 23 AUDIO
    TITLE "0:"
    INDEX 01 00:30:01
  TRACK 24 AUDIO
    TITLE "7:cjc124_2291"
    INDEX 01 00:30:40
  TRACK 25 AUDIO
    TITLE "0:"
    INDEX 01 00:33:42
  TRACK 26 AUDIO
    TITLE "8:cjc124_2292"
    INDEX 01 00:33:68
  TRACK 27 AUDIO
    TITLE "0:"
    INDEX 01 00:36:74
  TRACK 28 AUDIO
    TITLE "7:cjc124_2293"
    INDEX 01 00:37:38
  TRACK 29 AUDIO
    TITLE "0:"
    INDEX 01 00:39:70
  TRACK 30 AUDIO
    TITLE "8:cjc124_2294"
    INDEX 01 00:40:13
  TRACK 31 AUDIO
    TITLE "0:"
    INDEX 01 00:42:61
  TRACK 32 AUDIO
    TITLE "7:cjc124_2295"
    INDEX 01 00:43:27
  TRACK 33 AUDIO
    TITLE "0:"
    INDEX 01 00:45:71
  TRACK 34 AUDIO
    TITLE "8:cjc124_2296"
    INDEX 01 00:46:17
  TRACK 35 AUDIO
    TITLE "0:"
    INDEX 01 00:48:69
  TRACK 36 AUDIO
    TITLE "7:cjc124_2297"
    INDEX 01 00:49:31
  TRACK 37 AUDIO
    TITLE "0:"
    INDEX 01 00:51:52
  TRACK 38 AUDIO
    TITLE "8:cjc124_2298"
    INDEX 01 00:51:69
  TRACK 39 AUDIO
    TITLE "0:"
    INDEX 01 00:54:30
  TRACK 40 AUDIO
    TITLE "7:cjc124_2299"
    INDEX 01 00:54:66
  TRACK 41 AUDIO
    TITLE "0:"
    INDEX 01 00:57:27
  TRACK 42 AUDIO
    TITLE "8:cjc124_2300"
    INDEX 01 00:57:45
  TRACK 43 AUDIO
    TITLE "0:"
    INDEX 01 01:00:39
  TRACK 44 AUDIO
    TITLE "7:cjc124_2301"
    INDEX 01 01:01:01
  TRACK 45 AUDIO
    TITLE "0:"
    INDEX 01 01:03:18
  TRACK 46 AUDIO
    TITLE "8:cjc124_2302"
    INDEX 01 01:03:35
  TRACK 47 AUDIO
    TITLE "0:"
    INDEX 01 01:06:14
  TRACK 48 AUDIO
    TITLE "7:cjc124_2303"
    INDEX 01 01:06:57
  TRACK 49 AUDIO
    TITLE "0:"
    INDEX 01 01:09:10
  TRACK 50 AUDIO
    TITLE "8:cjc124_2304"
    INDEX 01 01:09:26
  TRACK 51 AUDIO
    TITLE "0:"
    INDEX 01 01:12:11
  TRACK 52 AUDIO
    TITLE "7:cjc124_2305"
    INDEX 01 01:12:52
  TRACK 53 AUDIO
    TITLE "0:"
    INDEX 01 01:14:39
  TRACK 54 AUDIO
    TITLE "8:cjc124_2306"
    INDEX 01 01:14:53
  TRACK 55 AUDIO
    TITLE "0:"
    INDEX 01 01:16:28
  TRACK 56 AUDIO
    TITLE "7:cjc124_2307"
    INDEX 01 01:16:65
  TRACK 57 AUDIO
    TITLE "0:"
    INDEX 01 01:20:22
  TRACK 58 AUDIO
    TITLE "8:cjc124_2308"
    INDEX 01 01:20:36
  TRACK 59 AUDIO
    TITLE "0:"
    INDEX 01 01:24:02
  TRACK 60 AUDIO
    TITLE "7:cjc124_2309"
    INDEX 01 01:24:39
  TRACK 61 AUDIO
    TITLE "0:"
    INDEX 01 01:27:12
  TRACK 62 AUDIO
    TITLE "8:cjc124_2310"
    INDEX 01 01:27:28
  TRACK 63 AUDIO
    TITLE "0:"
    INDEX 01 01:30:40
  TRACK 64 AUDIO
    TITLE "7:cjc124_2311"
    INDEX 01 01:31:04
  TRACK 65 AUDIO
    TITLE "0:"
    INDEX 01 01:36:23
  TRACK 66 AUDIO
    TITLE "8:cjc124_2312"
    INDEX 01 01:36:43
  TRACK 67 AUDIO
    TITLE "0:"
    INDEX 01 01:41:71
